<svg class="max-w-full" xmlns="http://www.w3.org/2000/svg" width="170.57" height="24" viewBox="0 0 170.57 24"><path d="M20.2446 2.76314C20.8426 2.76314 21.6472 3.14374 22.0325 3.60739L31.7535 15.3113C32.1398 15.776 31.9663 16.1556 31.3683 16.1556H25.4584C24.8604 16.1556 24.0558 15.776 23.6695 15.3124L13.9216 3.60634C13.5353 3.14269 13.7078 2.76209 14.3058 2.76209H20.2446V2.76314ZM22.3754 18.0239C22.7606 18.4886 23.5652 18.8692 24.1622 18.8692H37.1264C37.7244 18.8692 37.8969 18.4886 37.5116 18.0239L23.2801 0.880124C22.8949 0.415416 22.0903 0.0348175 21.4923 0.0348175H11.106C10.508 0.0348175 9.64355 0.353384 9.18497 0.743445L0.359349 8.23765C-0.0992314 8.62771 -0.121954 9.29113 0.30874 9.71168L5.10525 14.3987C5.53594 14.8203 6.25583 14.8361 6.70512 14.4345L12.5438 9.20702C12.992 8.8054 12.8712 8.47632 12.2732 8.47632H5.37275C4.77474 8.47632 4.66113 8.1567 5.11868 7.76559L9.41322 4.10259C9.8718 3.71148 10.5617 3.77246 10.947 4.23717L22.3754 18.0239Z M50.228 0.00012207L41.8351 18.8618H44.8107L46.6285 14.5722H55.8074L57.6251 18.8618H60.7051L52.3401 0.00012207H50.228ZM54.7508 12.0384H47.712L51.2432 3.71463L54.7508 12.0384Z M72.6664 18.8618V11.2803C72.6664 6.43244 70.1349 5.41471 68.0104 5.41471C65.8858 5.41471 64.7177 6.25371 64.0267 6.98547V5.73643H61.4322V18.8608H64.0267V11.3329C64.0267 9.13027 65.3116 7.70671 67.2987 7.70671C69.6113 7.70671 70.0967 9.7222 70.0967 11.4128V18.8597H72.6654L72.6664 18.8618Z M74.5482 18.1174C74.5482 20.5167 73.8304 21.5439 72.0725 21.6637L71.7833 21.6837V23.9999L72.1097 23.982C73.9172 23.8853 75.1969 23.3249 76.02 22.2683C76.7761 21.2979 77.1438 19.8964 77.1438 17.9839V5.73748H74.5482V18.1174Z M77.1179 0.00012207H74.5224V3.50015H77.1179V0.00012207Z M87.4009 13.3726C87.4009 15.5426 86.116 16.9452 84.1289 16.9452C82.2718 16.9452 81.3309 15.6888 81.3309 13.2117V5.73748H78.7364V13.319C78.7364 15.1915 79.1299 16.6445 79.9066 17.638C80.7091 18.6642 81.9 19.1846 83.4441 19.1846C85.4984 19.1846 86.7213 18.3235 87.4009 17.5623V18.8629H89.9696V5.73748H87.4009V13.3726Z M98.5359 5.41576C96.4837 5.41576 95.2433 6.25476 94.5523 6.98652V5.73748H91.9568V18.8618H94.5523V11.334C94.5523 9.13133 95.8371 7.70776 97.8243 7.70776C100.137 7.70776 100.622 9.72325 100.622 11.4139V18.8608H103.191V11.2793C103.191 6.43139 100.659 5.41366 98.5349 5.41366L98.5359 5.41576Z M110.388 5.41576C107.526 5.41576 105.338 7.0843 104.946 9.5687L104.888 9.93458H107.536L107.584 9.67804C107.842 8.28497 109.17 7.78977 110.229 7.78977C111.752 7.78977 112.737 8.39221 112.737 9.32478C112.737 9.94719 112.613 10.5265 111.103 10.783C106.46 11.5253 104.651 12.8448 104.651 15.4922C104.651 16.7433 105.165 17.7452 106.136 18.3908C106.907 18.9039 107.977 19.1856 109.149 19.1856C110.611 19.1856 111.904 18.6747 112.817 17.7579V18.8639H115.307V9.67383C115.307 6.88874 113.606 5.41681 110.388 5.41681V5.41576ZM112.764 12.521V13.8278C112.764 15.8002 111.119 16.8642 109.571 16.8642C108.526 16.8642 107.325 16.7023 107.325 15.4364C107.325 14.3829 107.952 13.6144 111.08 13.0382C111.613 12.9299 112.265 12.7617 112.763 12.521H112.764Z M126.907 7.15263C125.88 5.99507 124.439 5.38948 122.687 5.38948C119.207 5.38948 116.583 8.39536 116.583 12.3811C116.583 16.3669 119.172 19.1846 122.74 19.1846C124.464 19.1846 125.888 18.5863 126.907 17.4435V18.8629H129.476V0.00012207H126.907V7.15263ZM123.081 16.8915C120.865 16.8915 119.256 14.9496 119.256 12.2739C119.256 9.59813 120.829 7.70986 123.081 7.70986C125.334 7.70986 126.907 9.58657 126.907 12.2739C126.907 14.9612 125.298 16.8915 123.081 16.8915Z M140.481 14.3388C140.166 15.5731 139.11 16.8915 137.093 16.8915C135.076 16.8915 133.572 15.3408 133.39 12.911H143.139L143.145 12.6019C143.19 10.3467 142.526 8.39116 141.277 7.09376C140.22 5.99717 138.802 5.41681 137.173 5.41681C133.513 5.41681 130.753 8.48052 130.753 12.542C130.753 16.3911 133.354 19.1846 136.937 19.1846C140.023 19.1846 142.526 17.2974 143.165 14.4902L143.253 14.1033H140.543L140.483 14.3398L140.481 14.3388ZM137.093 7.70881C138.796 7.70881 140.098 8.90633 140.423 10.7242H133.56C134.056 8.85376 135.384 7.70881 137.093 7.70881Z M153.685 14.3388C153.37 15.5731 152.315 16.8915 150.298 16.8915C148.281 16.8915 146.778 15.3408 146.595 12.911H156.344L156.35 12.6019C156.395 10.3467 155.73 8.39116 154.482 7.09376C153.425 5.99717 152.007 5.41681 150.378 5.41681C146.718 5.41681 143.958 8.48052 143.958 12.542C143.958 16.3911 146.559 19.1846 150.142 19.1846C153.228 19.1846 155.73 17.2974 156.37 14.4902L156.458 14.1033H153.747L153.688 14.3398L153.685 14.3388ZM150.298 7.70881C152.001 7.70881 153.303 8.90633 153.628 10.7242H146.764C147.261 8.85376 148.588 7.70881 150.298 7.70881Z M164.573 5.41576C162.873 5.41576 161.35 6.14016 160.273 7.43335V5.73853H157.678V23.9841H160.273V17.4036C161.273 18.5727 162.687 19.1846 164.415 19.1846C167.924 19.1846 170.571 16.1903 170.571 12.2203C170.571 8.25027 168.105 5.41681 164.573 5.41681V5.41576ZM164.099 7.70881C166.315 7.70881 167.924 9.63914 167.924 12.3002C167.924 14.9612 166.315 16.9452 164.099 16.9452C161.882 16.9452 160.273 14.9917 160.273 12.3002C160.273 9.60865 161.882 7.70881 164.099 7.70881Z" fill="currentColor"></path></svg>
